<?xml version="1.0" standalone="no"?>
<!DOCTYPE svg PUBLIC "-//W3C//DTD SVG 1.1//EN" "http://www.w3.org/Graphics/SVG/1.1/DTD/svg11.dtd" >
<svg xmlns="http://www.w3.org/2000/svg">
<metadata>Generated by IcoMoon</metadata>
<defs>
<font id="icomoon" horiz-adv-x="1024">
<font-face units-per-em="1024" ascent="960" descent="-64" />
<missing-glyph horiz-adv-x="1024" />
<glyph unicode="&#x20;" horiz-adv-x="512" d="" />
<glyph unicode="&#xe100;" glyph-name="AccordionArrow" horiz-adv-x="1665" d="M0 768.385c0 47.945 17.314 100.219 56.602 135.179 39.122 39.122 87.067 56.602 135.179 56.602s100.219-17.314 135.179-56.602l505.591-505.591 505.591 505.591c39.122 39.122 87.067 56.602 135.013 56.602s100.386-17.314 135.179-56.602c39.289-39.289 56.769-87.234 56.769-135.179s-17.314-100.386-56.769-135.179l-636.109-640.603c-39.289-39.122-87.067-56.602-135.179-56.602s-100.386 17.314-135.179 56.602l-644.932 640.603c-39.622 39.122-56.935 87.234-56.935 135.179z" />
<glyph unicode="&#xe101;" glyph-name="arrow_l" horiz-adv-x="653" d="M553.171 960c25.451 0 50.902-9.712 70.288-29.098 38.81-38.81 38.81-101.767 0-140.615l-342.306-342.306 342.306-342.306c38.81-38.81 38.81-101.728 0-140.577-38.81-38.772-101.767-38.772-140.577 0l-482.883 482.883 482.883 482.921c19.386 19.386 44.876 29.098 70.288 29.098z" />
<glyph unicode="&#xe102;" glyph-name="arrow_r" horiz-adv-x="653" d="M99.387-64c-25.451 0-50.902 9.712-70.288 29.098-38.81 38.849-38.81 101.767 0 140.615l342.306 342.306-342.306 342.344c-38.81 38.81-38.81 101.728 0 140.577 38.81 38.772 101.767 38.772 140.577 0l482.883-482.921-482.883-482.921c-19.348-19.386-44.876-29.098-70.288-29.098z" />
<glyph unicode="&#xe103;" glyph-name="calendar" horiz-adv-x="960" d="M144.026 256h96c8.858 0 15.974 7.168 15.974 15.974v96.051c0 8.858-7.168 15.974-16.026 15.974h-95.949c-8.858 0-15.974-7.117-15.974-15.974v-96.051c-0.051-8.806 7.117-15.974 15.974-15.974zM432.026 383.949h-96c-8.858 0-16.026-7.117-16.026-15.974v-96.051c0-8.806 7.168-15.974 16.026-15.974h96c8.806 0 15.974 7.168 15.974 15.974v96.051c0 8.858-7.168 15.974-15.974 15.974zM623.974 383.949h-96c-8.806 0-15.974-7.117-15.974-15.923v-96.051c0-8.806 7.168-15.974 15.974-15.974h96c8.858 0 16.026 7.168 16.026 15.974v96.051c0 8.806-7.168 15.923-16.026 15.923zM815.974 383.949h-96c-8.806 0-15.974-7.117-15.974-15.974v-96.051c0-8.806 7.168-15.974 15.974-15.974h96c8.909 0 15.974 7.168 15.974 15.974v96.051c0.051 8.858-7.066 15.974-15.974 15.974zM144.026 64h96c8.858 0 15.974 7.168 15.974 15.974v96c0 8.858-7.117 16.026-15.974 16.026h-96c-8.858 0-16.026-7.168-16.026-15.974v-96c0-8.858 7.168-16.026 16.026-16.026zM432.026 192h-96c-8.858 0-16.026-7.168-16.026-15.974v-96c0-8.858 7.168-15.974 16.026-15.974h96c8.806 0 15.974 7.168 15.974 15.974v96c0 8.806-7.168 15.974-15.974 15.974zM623.974 192h-96c-8.806 0-15.974-7.168-15.974-15.974v-96c0-8.858 7.168-15.974 15.974-15.974h96c8.858 0 16.026 7.168 16.026 15.974v96c0 8.806-7.168 15.974-16.026 15.974zM815.974 192h-96c-8.806 0-15.974-7.168-15.974-15.974v-96c0-8.858 7.168-15.974 15.974-15.974h96c8.909 0 15.974 7.168 15.974 15.974v96c0.051 8.806-7.066 15.974-15.974 15.974zM144.026 464.742h671.949c8.909 0 15.974 7.168 15.974 15.974v70.451c0 8.858-7.117 16.026-15.974 16.026h-671.949c-8.858 0-16.026-7.168-16.026-16.026v-70.4c0-8.858 7.168-16.026 16.026-16.026zM960 768c0 35.328-28.672 64-64 64h-64v64c0 35.328-28.723 64-64.051 64h-63.949c-35.328 0-64-28.672-64-64v-64h-320v64c0 35.328-28.672 64-64 64h-64c-35.328 0-64-28.672-64-64v-64h-64c-35.328 0-64-28.672-64-64v-768c0-35.328 28.672-64 64-64h832c35.328 0 64.102 28.723 64.102 64.051l-0.102 767.949zM704.051 880.026c0 8.858 7.168 15.974 15.974 15.974h32.051c8.858 0 15.923-7.168 15.923-15.974v-96c0-8.858-7.117-15.974-15.974-15.974h-32.051c-8.806 0-15.974 7.168-15.974 15.974v96zM192.051 880.026c0 8.858 7.168 15.974 15.974 15.974h32c8.858 0 16.026-7.168 16.026-15.974v-96c0-8.858-7.168-15.974-16.026-15.974h-31.949c-8.858 0-15.974 7.168-15.974 15.974v96zM896 0h-832v640h832v-640z" />
<glyph unicode="&#xe104;" glyph-name="calendar_paths" horiz-adv-x="927" d="M493.314 504.058h104.642v-104.642h-104.642v104.642zM657.752 339.62h104.642v-104.642h-104.642v104.642zM493.314 175.182h104.642v-104.642h-104.642v104.642zM493.314 339.62h104.642v-104.642h-104.642v104.642zM216.759 705.869c20.644 0 37.372 16.728 37.372 37.372v179.387c0 20.644-16.728 37.372-37.372 37.372s-37.372-16.728-37.372-37.372v-179.387c0-20.644 16.728-37.372 37.372-37.372zM657.752 504.058h104.642v-104.642h-104.642v104.642zM710.073 705.869c20.644 0 37.372 16.728 37.372 37.372v179.387c0 20.644-16.728 37.372-37.372 37.372s-37.372-16.728-37.372-37.372v-179.387c0-20.644 16.728-37.372 37.372-37.372zM164.438 339.62h104.642v-104.642h-104.642v104.642zM164.438 175.182h104.642v-104.642h-104.642v104.642zM859.562 862.832h-97.168v-119.591c0-28.896-23.425-52.321-52.321-52.321s-52.321 23.425-52.321 52.321v119.591h-388.672v-119.591c0-28.896-23.425-52.321-52.321-52.321s-52.321 23.425-52.321 52.321v119.591h-82.219c-41.274 0-82.219-25.996-82.219-67.27v-777.343c0-41.289 40.945-82.219 82.219-82.219h777.343c41.289 0 67.27 40.93 67.27 82.219v777.343c0 41.274-25.981 67.27-67.27 67.27zM896.934 48.117c0-41.289-25.981-82.219-67.27-82.219h-717.547c-41.274 0-82.219 40.93-82.219 82.219v515.737h867.036v-515.737zM328.876 339.62h104.642v-104.642h-104.642v104.642zM328.876 175.182h104.642v-104.642h-104.642v104.642zM328.876 504.058h104.642v-104.642h-104.642v104.642zM164.438 504.058h104.642v-104.642h-104.642v104.642z" />
<glyph unicode="&#xe105;" glyph-name="cart_icon" horiz-adv-x="1174" d="M585.866 45.57c0-60.514-49.056-109.57-109.57-109.57s-109.57 49.056-109.57 109.57c0 60.514 49.056 109.57 109.57 109.57s109.57-49.056 109.57-109.57zM1023.927 45.57c0-60.514-49.056-109.57-109.57-109.57s-109.57 49.056-109.57 109.57c0 60.514 49.056 109.57 109.57 109.57s109.57-49.056 109.57-109.57zM1097.756 814.836h-713.197c-7.632 30.53-15.265 63.702-22.897 91.737-12.696 30.603-30.603 48.364-58.565 50.932-2.569 0-5.064 2.569-10.201 2.569h-2.569c-73.903 0-254.734 0-254.734 0-17.834 0-35.667-15.265-35.667-35.667v-73.83c0-20.402 17.834-35.667 35.667-35.667 0 0 142.595 0 198.665 0 43.3-165.566 86.599-366.799 129.899-532.366 12.696-35.667 35.667-53.501 71.334-53.501 183.473 0 366.873 0 550.199 0 30.603 0 63.702 22.897 71.334 53.501 35.667 140.1 71.408 282.769 107.002 425.364 2.569 10.201 5.064 22.897 10.201 33.099-2.569 40.731-35.667 73.83-76.472 73.83z" />
<glyph unicode="&#xe106;" glyph-name="Checkbox_Checked" d="M938.688 960h-853.376c-47.104 0-85.312-38.208-85.312-85.312v-853.376c0-47.104 38.208-85.312 85.312-85.312h853.312c47.168 0 85.376 38.208 85.376 85.312v853.376c0 47.104-38.208 85.312-85.312 85.312zM970.688-10.688h-917.376v917.376h917.312v-917.376zM421.824 230.528c8-8 18.88-12.48 30.208-12.48 11.264 0 22.144 4.48 30.208 12.48l337.344 344.512c16.64 16.704 16.64 43.712 0 60.288l-30.272 30.208c-8 8-18.88 12.48-30.144 12.48-11.392 0-22.272-4.48-30.272-12.48l-276.864-287.552-156.992 147.52c-8.32 8.384-19.2 12.48-30.144 12.48-10.88 0-21.824-4.096-30.144-12.416l-30.208-30.272c-8-7.936-12.544-18.816-12.544-30.080s4.48-22.208 12.48-30.144l217.344-204.544z" />
<glyph unicode="&#xe107;" glyph-name="Checkbox_unchecked" d="M938.688-64h-853.376c-47.104 0-85.312 38.208-85.312 85.312v853.376c0 47.104 38.208 85.312 85.312 85.312h853.312c47.168 0 85.376-38.208 85.376-85.312v-853.376c0-47.104-38.208-85.312-85.312-85.312zM53.312-10.688h917.312v917.376h-917.312v-917.376z" />
<glyph unicode="&#xe108;" glyph-name="checkmark" horiz-adv-x="1425" d="M578.82-64c-25.265 0-49.391 9.973-67.247 27.83l-483.743 455.248c-17.857 17.762-27.83 41.982-27.83 67.152s9.973 49.391 27.83 67.152l67.152 67.152c18.521 18.616 42.837 27.83 67.152 27.83s48.631-9.213 67.247-27.83l349.438-328.352 616.528 639.988c17.762 17.857 41.982 27.83 67.152 27.83v0c25.265 0 49.391-9.973 67.152-27.83l67.247-67.152c37.138-37.043 37.138-97.261 0-134.304l-750.927-766.979c-17.762-17.762-42.077-27.735-67.152-27.735z" />
<glyph unicode="&#xe109;" glyph-name="Close_Clear_ccc" d="M512 960c-282.752 0-512-229.248-512-512s229.248-512 512-512c282.752 0 512 229.248 512 512s-229.248 512-512 512zM608 448l128-128-96-96-128 128-128-128-96 96 128 128-128 128 96 96 128-128 128 128 96-96-128-128z" />
<glyph unicode="&#xe10a;" glyph-name="contract_paths" horiz-adv-x="827" d="M761.386 931.817h-79.346c-2.978 18.789-17.652 28.183-35.398 28.183h-455.605c-17.746 0-32.411-9.394-35.398-28.183h-80.915c-38.677 0-74.724-32.918-74.724-71.595v-854.194c0-38.677 36.047-70.027 74.724-70.027h686.662c38.677 0 65.329 31.349 65.329 70.027v854.194c0 38.677-26.652 71.595-65.329 71.595zM169.101 923.972c0 9.507 12.429 17.239 21.936 17.239h34.431v-7.769c0-15.595 17.342-29.809 32.946-29.809h320.85c15.595 0 31.378 14.214 31.378 29.809v7.769h36c9.507 0 20.367-7.732 20.367-17.239v-87.66c0-9.498-10.86-17.23-20.367-17.23h-455.605c-9.507 0-21.936 7.732-21.936 17.23v87.66zM807.927 6.027c0-28.259-18.282-51.238-46.54-51.238h-686.662c-28.249 0-55.935 22.979-55.935 51.238v854.194c0 28.249 27.686 52.806 55.935 52.806h75.588v-76.715c0-19.888 20.828-36.018 40.725-36.018h455.605c19.888 0 39.156 16.13 39.156 36.018v76.715h75.588c28.259 0 46.54-24.557 46.54-52.806v-854.194zM469.725 678.165h216.073v-18.789h-216.073v18.789zM469.725 574.826h216.073v-18.789h-216.073v18.789zM469.725 471.486h216.073v-18.789h-216.073v18.789zM169.101 368.147h516.697v-18.789h-516.697v18.789zM169.101 264.807h516.697v-18.789h-516.697v18.789zM169.101 152.073h516.697v-18.789h-516.697v18.789zM385.174 687.56h-216.073v-234.862h216.073v234.862zM366.385 471.486h-178.495v197.284h178.495v-197.284z" />
<glyph unicode="&#xe10b;" glyph-name="customer_paths" horiz-adv-x="827" d="M761.386 931.817h-79.355c-2.969 18.789-17.643 28.183-35.389 28.183h-455.605c-17.746 0-32.411-9.394-35.398-28.183h-80.915c-38.677 0-74.724-32.918-74.724-71.595v-854.194c0-38.677 36.047-70.027 74.724-70.027h686.662c38.677 0 65.329 31.349 65.329 70.027v854.194c0 38.677-26.652 71.595-65.329 71.595zM169.101 923.972c0 9.507 12.429 17.239 21.936 17.239h34.431v-7.769c0-15.604 17.342-29.809 32.946-29.809h320.85c15.595 0 31.378 14.204 31.378 29.809v7.769h36c9.507 0 20.367-7.732 20.367-17.239v-87.66c0-9.498-10.86-17.23-20.367-17.23h-455.605c-9.507 0-21.936 7.732-21.936 17.23v87.66zM807.927 6.027c0-28.249-18.291-51.238-46.54-51.238h-686.662c-28.249 0-55.935 22.988-55.935 51.238v854.194c0 28.249 27.686 52.806 55.935 52.806h75.588v-76.715c0-19.888 20.828-36.018 40.725-36.018h455.605c19.898 0 39.156 16.13 39.156 36.018v76.715h75.588c28.249 0 46.54-24.557 46.54-52.806v-854.194zM469.725 678.165h216.073v-18.789h-216.073v18.789zM469.725 574.826h216.073v-18.789h-216.073v18.789zM469.725 471.486h216.073v-18.789h-216.073v18.789zM169.101 368.147h516.697v-18.789h-516.697v18.789zM169.101 264.807h516.697v-18.789h-516.697v18.789zM169.101 152.073h516.697v-18.789h-516.697v18.789zM177.274 452.697h194.025c8.624 0 13.876 6.745 13.876 10.691v27.93c0 6.050-5.674 13.434-14.533 17.173-12.466 5.12-42.811 15.153-61.036 20.433-1.559 0.489-2.151 0.564-2.151 6.914 0 5.252 2.020 10.531 4.162 15.003 2.32 4.866 4.988 13.030 5.975 20.358 2.762 3.157 6.482 9.376 8.906 21.222 2.123 10.447 1.109 14.251-0.301 17.821-0.141 0.376-0.31 0.742-0.423 1.118-0.535 2.443 0.197 15.172 2.020 25.036 1.249 6.783-0.329 21.185-9.827 33.097-5.994 7.534-17.464 16.779-38.423 18.066l-11.499-0.009c-20.602-1.278-32.082-10.522-38.076-18.056-9.498-11.912-11.076-26.314-9.817-33.087 1.832-9.874 2.546-22.603 2.029-24.999-0.113-0.423-0.263-0.789-0.423-1.165-1.4-3.57-2.396-7.375-0.263-17.821 2.405-11.846 6.172-18.066 8.944-21.222 0.977-7.328 3.739-15.492 6.069-20.358 1.7-3.551 2.499-8.389 2.499-15.228 0-6.36-0.244-6.435-1.7-6.886-18.845-5.468-47.414-16.112-58.603-20.922-8.859-3.739-9.601-10.437-9.601-16.487v-27.93c0-3.946-0.46-10.691 8.173-10.691zM187.89 490.689c9.394 4.622 38.358 14.853 56.423 20.095 4.462 1.39 14.195 4.641 14.195 24.83 0 9.733-1.738 17.145-4.707 23.355-1.625 3.382-3.889 9.695-4.556 14.721l-0.846 5.655-3.814 4.274c-0.282 0.319-2.79 3.354-4.66 12.57-1.024 4.998-0.864 6.623-0.874 6.623h-0.009c0.056 0.178 0.122 0.338 0.122 0.338s-0.009 0-0.009-0.009c0.451 1.099 0.855 2.208 1.184 3.429l0.113 0.423 0.085 0.423c1.691 7.76-0.817 26.474-1.916 32.402-0.366 2.311 0.366 10.851 6.041 17.981 5.186 6.51 13.265 10.193 24.012 10.963l10.259 0.009c10.963-0.77 19.155-4.462 24.341-10.982 5.674-7.121 6.407-15.67 6.031-17.981-1.287-6.98-3.551-24.848-1.907-32.449l0.16-0.695 0.207-0.695c0.225-0.761 0.498-1.522 0.939-2.64 0.066-0.178 0.141-0.348 0.169-0.395 0.009-0.066 0.197-1.663-0.827-6.745-1.888-9.216-4.387-12.279-4.669-12.598l-3.739-4.256-0.761-5.618c-0.676-5.035-2.771-11.377-4.387-14.759-2.875-6.012-6.182-14.073-6.182-23.12 0-6.050 0-20.217 15.351-24.952 17.605-5.111 47.968-14.9 59.683-19.7 0.874-0.376 3.044-0.761 3.044-1.015v-18.686h-178.495v19.202z" />
<glyph unicode="&#xe10c;" glyph-name="date_arrow_l" horiz-adv-x="1185" d="M311.655-62.277h870.955v1020.553h-870.955l-309.573-510.295z" />
<glyph unicode="&#xe10d;" glyph-name="date_arrow_r" horiz-adv-x="1185" d="M873.037 958.277h-870.955v-1020.553h870.955l309.573 510.295z" />
<glyph unicode="&#xe10e;" glyph-name="download" d="M896 512.032c0-16.672-6.496-33.024-18.752-45.28l-320-320c-12-12-28.288-18.752-45.248-18.752-16.992 0-33.28 6.752-45.28 18.752l-320 320c-12.224 12.256-18.72 28.608-18.72 45.28 0 8.224 1.6 16.544 4.864 24.48 9.92 23.904 33.248 39.488 59.136 39.488h160v320c0 35.328 28.672 64 64 64h192c35.328 0 64-28.672 64-64v-320h160c25.888 0 49.216-15.584 59.136-39.488 3.264-7.936 4.864-16.256 4.864-24.48zM896 64h-768v256h-128v-256c0-70.688 57.312-128 128-128h768c70.688 0 128 57.312 128 128v256h-128v-256z" />
<glyph unicode="&#xe10f;" glyph-name="dropdown_menu_arrow_down" horiz-adv-x="1687" d="M1686.747 960h-1686.747l829-1024 857.747 1024z" />
<glyph unicode="&#xe110;" glyph-name="expiring_soon_paths" d="M445.372 438.593c0.806-0.983 1.925-1.843 2.799-2.799 11.278-13.995 28.317-23.115 47.677-23.115 33.915 0 61.44 27.498 61.44 61.44 0 18.036-7.919 34.092-20.234 45.329-1.597 1.789-3.086 3.645-5.434 5.434l-248.286 188.935c-7.236 5.557-17.64 5.844-25.204 0-9.039-6.963-10.718-19.92-3.755-28.959l190.996-246.265zM511.713 960c-6.717 0-6.54-0.765-20.193-0.997v-244.763h40.96v203.749c250.238-10.841 450.56-217.17 450.56-469.989 0-259.727-211.285-471.040-471.040-471.040s-471.040 211.313-471.040 471.040c0 129.898 52.838 247.658 138.158 332.95l-29.123 29.123c-92.679-92.652-149.996-220.665-149.996-362.073 0-282.788 229.199-512 512-512s511.85 229.212 511.85 512c0 282.774-229.335 512-512.137 512z" />
<glyph unicode="&#xe111;" glyph-name="ExternalLink" horiz-adv-x="1170" d="M877.735 82.265h-731.422v512.012h112.179c49.787 64.952 113.252 112.374 180.375 146.289h-365.723c-73.145 0-73.145-73.145-73.145-73.145v-658.277c0 0 0-73.145 73.145-73.145h877.735c0 0 73.145 0 73.145 73.145v274.268l-146.289-164.575v-36.572zM1159.61 620.146l-292.578 329.151c-7.022 6.997-16.36 10.703-25.869 10.703-4.706 0-9.436-0.902-13.995-2.779-13.654-5.657-22.577-19.018-22.577-33.793v-182.861c-0.439 0-549.462-0.171-549.462-474.708 182.959 182.935 549.462 182.13 549.462 182.13v-182.861c0-14.775 8.85-28.136 22.577-33.793 4.559-1.902 9.289-2.779 13.995-2.779 9.509 0 18.847 3.706 25.869 10.703l292.578 329.151c7.144 7.168 10.703 16.531 10.703 25.869s-3.56 18.725-10.703 25.869z" />
<glyph unicode="&#xe112;" glyph-name="formError_16_e00000" horiz-adv-x="1170" d="M1170.286 9.143c0-12.581-3.218-25.161-9.728-36.425-13.093-22.747-37.303-36.718-63.415-36.718h-1024c-26.185 0-50.322 13.97-63.415 36.718-6.51 11.337-9.728 23.991-9.728 36.718 0 12.654 3.365 25.307 10.021 36.571l512 877.714c13.019 22.455 37.157 36.279 63.122 36.279s50.103-13.824 63.122-36.279l512-877.714c6.729-11.337 10.021-24.137 10.021-36.864zM585.143 9.143c50.469 0 91.429 40.96 91.429 91.429s-40.96 91.429-91.429 91.429-91.429-40.96-91.429-91.429 40.96-91.429 91.429-91.429zM694.857 667.429h-219.429l36.571-402.286h146.286l36.571 402.286z" />
<glyph unicode="&#xe113;" glyph-name="gestSupprt_icon" d="M859.733 448h115.2v-290.133c0-32-25.6-57.6-57.6-57.6h-810.667c-32 0-57.6 25.6-57.6 57.6v290.133h115.2v-57.6h115.2v57.6h462.933v-57.6h115.2v57.6zM974.933 620.8v-115.2h-115.2v57.6h-115.2v-57.6h-465.067v57.6h-115.2v-57.6h-115.2v115.2c0 32 25.6 57.6 57.6 57.6h232.533v57.6c0 32 25.6 57.6 57.6 57.6h232.533c32 0 57.6-25.6 57.6-57.6v-57.6h230.4c32 2.133 57.6-25.6 57.6-57.6zM627.2 738.133h-230.4v-57.6h232.533v57.6z" />
<glyph unicode="&#xe114;" horiz-adv-x="751" d="M68.267 960c-37.547 0-68.267-30.72-68.267-68.267v-887.467c0-37.524 30.72-68.267 68.267-68.267h682.667v1024h-682.667z" />
<glyph unicode="&#xe115;" horiz-adv-x="751" d="M443.87 265.956c-5.029 0-10.012 1.911-13.813 5.734l-162.497 162.497c-7.646 7.646-7.646 20.048 0 27.648l162.497 162.497c7.646 7.646 20.025 7.646 27.648 0 7.669-7.623 7.669-20.025 0-27.671l-148.662-148.662 148.639-148.662c7.669-7.6 7.669-20.002 0-27.648-3.777-3.823-8.784-5.734-13.813-5.734z" />
<glyph unicode="&#xe116;" horiz-adv-x="751" d="M682.667-64c37.547 0 68.267 30.72 68.267 68.267v887.467c0 37.524-30.72 68.267-68.267 68.267h-682.667v-1024h682.667z" />
<glyph unicode="&#xe117;" horiz-adv-x="751" d="M307.063 630.044c5.029 0 10.012-1.911 13.813-5.734l162.497-162.497c7.646-7.646 7.646-20.048 0-27.648l-162.497-162.497c-7.646-7.646-20.025-7.646-27.648 0-7.669 7.623-7.669 20.025 0 27.671l148.639 148.639-148.639 148.662c-7.669 7.6-7.669 20.002 0 27.648 3.8 3.846 8.806 5.757 13.835 5.757z" />
<glyph unicode="&#xe118;" glyph-name="InfoTip" d="M512 960c282.816 0 512-229.248 512-512 0-282.816-229.184-512-512-512-282.752 0-512 229.184-512 512 0 282.752 229.248 512 512 512zM512 560c61.888 0 112 50.176 112 112s-50.112 112-112 112c-61.888 0-112-50.176-112-112 0-61.952 50.112-112 112-112zM608 512h-192v-384h192v384z" />
<glyph unicode="&#xe119;" glyph-name="InlineArrow" horiz-adv-x="1794" d="M35.662 752.307l770.439-780.644c23.775-23.663 54.951-35.662 86.016-35.662 31.176 0 62.241 11.887 86.016 35.662l780.532 780.644c23.887 23.775 35.662 54.951 35.662 86.016 0 31.176-11.775 62.353-35.55 86.128-23.775 23.663-54.951 35.55-86.128 35.55-31.064 0-62.241-11.887-86.016-35.55l-694.517-694.741-684.424 694.741c-23.663 23.663-54.951 35.55-86.016 35.55-31.176 0-62.353-11.887-86.016-35.55-23.775-23.775-35.662-55.063-35.662-86.128s11.887-62.353 35.662-86.016z" />
<glyph unicode="&#xe11a;" glyph-name="Loading" d="M512 960c-35.328 0-64-28.576-64-52.96v-158.88c0-24.416 28.672-44.16 64-44.16s64 19.744 64 44.128v158.912c0 24.384-28.672 52.96-64 52.96zM512 192c-35.328 0-64-28.608-64-52.96v-158.912c0-24.384 28.672-44.128 64-44.128s64 19.744 64 44.128v158.912c0 24.352-28.672 52.96-64 52.96zM256 448c0 35.328-19.744 64-44.128 64h-158.912c-24.384 0-52.96-28.672-52.96-64s28.576-64 52.96-64h158.88c24.416 0 44.16 28.672 44.16 64zM979.872 512h-158.912c-24.384 0-52.96-28.672-52.96-64s28.576-64 52.96-64h158.912c24.384 0 44.128 28.672 44.128 64s-19.744 64-44.128 64zM254.528 281.024l-112.352-112.384c-17.248-17.248-17.184-57.696 7.808-82.688s65.44-25.056 82.688-7.808l112.384 112.384c17.248 17.216 10.944 51.456-14.048 76.448-25.024 24.992-59.264 31.296-76.48 14.048zM775.712 621.216l112.352 112.352c17.248 17.248 10.976 51.488-14.016 76.48-24.96 24.992-59.232 31.296-76.48 14.048l-112.352-112.352c-17.248-17.248-17.184-57.696 7.776-82.688 25.024-25.024 65.504-25.088 82.72-7.84zM769.504 281.024c-17.248 17.216-51.488 10.944-76.512-14.048-24.96-24.992-31.264-59.232-14.016-76.48l112.384-112.352c17.216-17.248 57.728-17.184 82.688 7.808 24.992 24.96 25.056 65.44 7.808 82.688l-112.352 112.384zM248.288 621.216c17.248-17.248 57.696-17.184 82.688 7.808s25.056 65.472 7.808 82.72l-112.352 112.32c-17.248 17.248-51.488 10.976-76.48-14.016s-31.296-59.232-14.048-76.48l112.384-112.352z" />
<glyph unicode="&#xe11b;" glyph-name="manageKeys_icon" d="M992 625.067c0-168.533-136.533-302.933-302.933-302.933-36.267 0-70.4 6.4-102.4 17.067l-78.933-78.933h-91.733v-89.6h-121.6v-121.6h-91.733v-91.733h-181.333v181.333l381.867 381.867c-10.667 32-17.067 66.133-17.067 102.4 0 168.533 136.533 302.933 302.933 302.933s302.933-134.4 302.933-300.8zM778.667 806.4c-51.2 0-91.733-40.533-91.733-91.733s40.533-91.733 91.733-91.733c51.2 0 91.733 40.533 91.733 91.733s-40.533 91.733-91.733 91.733z" />
<glyph unicode="&#xe11c;" glyph-name="manageUsers_icon" d="M827.733 896h-561.067c-29.867 0-55.467-25.6-55.467-55.467v-55.467h-57.6c-29.867 0-55.467-25.6-55.467-55.467s25.6-55.467 55.467-55.467h55.467v-168.533h-55.467c-29.867 0-55.467-25.6-55.467-55.467s25.6-55.467 55.467-55.467h55.467v-168.533h-55.467c-29.867 0-55.467-25.6-55.467-55.467s25.6-55.467 55.467-55.467h55.467v-55.467c0-29.867 25.6-55.467 55.467-55.467h558.933c29.867 0 55.467 25.6 55.467 55.467v780.8c4.267 29.867-21.333 55.467-51.2 55.467zM435.2 558.933c0 61.867 51.2 110.933 110.933 110.933s110.933-51.2 110.933-110.933v-55.467c0-61.867-51.2-110.933-110.933-110.933s-110.933 51.2-110.933 110.933v55.467zM770.133 251.733c0-14.933-12.8-27.733-27.733-27.733h-392.533c-14.933 0-27.733 12.8-27.733 27.733v27.733c0 10.667 6.4 21.333 14.933 25.6 4.267 2.133 119.467 59.733 209.067 59.733s202.667-57.6 209.067-59.733c8.533-4.267 14.933-14.933 14.933-25.6v-27.733z" />
<glyph unicode="&#xe11d;" glyph-name="maximize_ccc" d="M960 960h-896c-35.392 0-64-28.672-64-64v-896c0-35.392 28.608-64 64-64h896c35.392 0 64 28.608 64 64v896c0 35.328-28.608 64-64 64zM736 336c0-15.168-9.152-28.736-23.104-34.56-4.48-1.856-9.408-2.752-14.272-2.752-9.6 0-19.264 3.776-26.432 10.944l-85.504 85.568-160.256-160.256c-7.36-7.296-16.832-10.944-26.432-10.944-9.472 0-19.136 3.648-26.432 10.944l-74.688 74.688c-7.232 7.296-10.88 16.768-10.88 26.368 0 9.472 3.648 19.136 10.944 26.432l160.256 160.256-85.632 85.504c-7.104 7.232-10.88 16.768-10.88 26.496 0 4.8 1.024 9.664 2.88 14.272 5.696 13.888 19.392 23.040 34.432 23.040h298.688c20.736 0 37.376-16.704 37.376-37.312v-298.688z" />
<glyph unicode="&#xe11e;" glyph-name="Minimize_ccc" d="M960 960h-896c-35.392 0-64-28.608-64-64v-896c0-35.392 28.608-64 64-64h896c35.392 0 64 28.608 64 64v896c0 35.392-28.608 64-64 64zM736 384h-448v128h448v-128z" />
<glyph unicode="&#xe11f;" glyph-name="Pagination_arrow6X9_CCC_006690" horiz-adv-x="640" d="M602.453 357.547l-384-384c-24.96-24.96-57.707-37.547-90.453-37.547-32.853 0-65.493 12.48-90.56 37.547-25.067 24.96-37.547 57.707-37.44 90.56 0 32.853 12.48 65.387 37.547 90.453l293.547 293.44-293.547 293.547c-25.173 24.96-37.653 57.813-37.547 90.56 0 32.747 12.48 65.493 37.547 90.453 24.96 24.96 57.707 37.44 90.453 37.44s65.493-12.48 90.453-37.547l384-384c25.067-24.96 37.547-57.707 37.547-90.56 0-32.64-12.48-65.387-37.547-90.347z" />
<glyph unicode="&#xe120;" glyph-name="Pagination_square_24_ccc_0095D3_" d="M960 960h-896c-35.371 0-64-28.672-64-64v-896c0-35.328 28.629-64 64-64h896c35.328 0 64 28.672 64 64v896c0 35.328-28.672 64-64 64zM653.269 402.731l-192-192c-12.501-12.501-28.885-18.731-45.269-18.731-16.427 0-32.768 6.229-45.269 18.731-12.544 12.501-18.773 28.885-18.731 45.312 0 16.384 6.229 32.725 18.731 45.227l146.773 146.731-146.773 146.731c-12.501 12.501-18.773 28.928-18.731 45.269 0 16.384 6.229 32.768 18.731 45.227 12.501 12.544 28.885 18.773 45.269 18.773 16.341 0 32.725-6.229 45.227-18.731l192-192c12.501-12.501 18.731-28.885 18.731-45.312 0.043-16.341-6.187-32.725-18.688-45.227z" />
<glyph unicode="&#xe121;" glyph-name="progressbar1_icon" horiz-adv-x="1361" d="M1336.685 508.559l-424.905 427.888c-14.76 14.76-38.366 23.606-59.041 23.606h-767.215c-47.159 0-85.525-38.366-85.525-85.578v-852.845c0-47.159 38.366-85.578 85.578-85.578h767.163c23.606 0 44.281 8.898 59.041 23.658l424.905 430.819c17.691 17.639 23.606 38.314 23.606 58.988 2.879 20.675-5.915 44.281-23.606 59.041zM594.228 168.656h-98.035v431.447l-91.335-94.685-56.947 59.512 160.844 162.519h85.473v-558.793z" />
<glyph unicode="&#xe122;" glyph-name="progressbar2_icon" horiz-adv-x="1361" d="M1336.685 508.506l-424.905 427.888c-14.76 14.76-38.366 23.606-59.041 23.606h-767.215c-47.159 0-85.525-38.366-85.525-85.578v-852.845c0-47.159 38.366-85.578 85.578-85.578h767.215c23.606 0 44.281 8.898 59.041 23.658l424.905 430.819c17.691 17.639 23.606 38.314 23.606 58.988 2.879 20.675-5.967 44.281-23.658 59.041zM697.968 164.416h-404.649v77.098c217.006 164.194 301.589 237.053 301.589 317.501 0 58.674-50.247 85.473-101.385 85.473-65.374 0-115.621-26.799-150.795-67.049l-56.947 64.484c49.41 59.512 128.183 89.66 206.119 89.66 108.032 0 202.769-61.134 202.769-172.568 0-103.060-94.737-195.18-244.642-308.289h247.992v-86.31z" />
<glyph unicode="&#xe123;" glyph-name="progressbar3_icon" horiz-adv-x="1361" d="M1336.685 508.506l-424.905 427.888c-14.76 14.76-38.366 23.606-59.041 23.606h-767.215c-47.159 0-85.525-38.366-85.525-85.578v-852.845c0-47.159 38.366-85.578 85.578-85.578h767.215c23.606 0 44.281 8.898 59.041 23.658l424.905 430.819c17.691 17.639 23.606 38.314 23.606 58.988 2.879 20.675-5.967 44.281-23.658 59.041zM482.689 159.392c-99.71 0-173.406 40.198-211.144 90.498l52.76 64.484c36.011-41.925 95.522-67.886 154.982-67.886 73.749 0 116.511 33.551 116.511 85.473 0 55.324-44.438 78.721-124.048 78.721-23.449 0-56.11 0-64.484-0.837v87.933c10.049-0.837 42.71-0.837 64.484-0.837 65.374 0 114.784 22.664 114.784 73.749 0 51.975-50.247 78.773-113.109 78.773-56.947 0-103.897-21.826-144.095-62.024l-50.247 61.134c42.71 50.247 110.597 87.985 203.607 87.985 120.646 0 201.879-56.947 201.879-150.795 0-74.534-63.699-118.134-121.484-128.183 54.487-5.025 129.858-49.358 129.858-135.72 0.052-94.633-81.233-162.467-210.254-162.467z" />
<glyph unicode="&#xe124;" glyph-name="progressbar4_icon" horiz-adv-x="1361" d="M488.97 381.422v258.041l-170.056-258.041zM1336.685 508.559l-424.905 427.888c-14.76 14.76-38.366 23.606-59.041 23.606h-767.215c-47.159 0-85.525-38.366-85.525-85.578v-852.845c0-47.159 38.366-85.578 85.578-85.578h767.215c23.606 0 44.281 8.898 59.041 23.658l424.905 430.819c17.691 17.639 23.606 38.314 23.606 58.988 2.879 20.675-5.967 44.281-23.658 59.041zM661.591 295.164h-74.586v-126.508h-98.035v126.508h-266.416v78.773l229.568 353.511h134.883v-345.974h74.586v-86.31z" />
<glyph unicode="&#xe125;" glyph-name="progressbar5_icon" horiz-adv-x="1361" d="M1336.685 508.506l-424.905 427.888c-14.76 14.76-38.366 23.606-59.041 23.606h-767.215c-47.159 0-85.525-38.366-85.525-85.578v-852.845c0-47.159 38.366-85.578 85.578-85.578h767.215c23.606 0 44.281 8.898 59.041 23.658l424.905 430.819c17.691 17.639 23.606 38.314 23.606 58.988 2.879 20.675-5.967 44.281-23.658 59.041zM506.138 163.579c-96.36 0-162.519 32.608-207.794 86.258l56.11 66.997c37.686-42.71 87.985-66.211 150.795-66.211 70.399 0 114.784 43.548 114.784 98.035 0 60.297-43.548 99.657-112.272 99.657-47.787 0-87.148-15.074-122.321-48.52l-69.561 20.099v312.476h366.126v-86.258h-268.091v-161.681c26.799 26.799 72.911 48.572 126.508 48.572 93.847 0 178.431-66.211 178.431-180.053 0.105-116.459-87.881-189.37-212.714-189.37z" />
<glyph unicode="&#xe126;" glyph-name="quarter_paths" horiz-adv-x="1157" d="M31.618 582.516l-5.396-16.507c-70.145-214.914 3.2-439.601 186.844-572.43l14.122-10.195 316.43 433.551-512 165.581zM219.641 32.12c-156.36 121.368-220.179 316.851-165.334 506.546l432.867-140.013-267.533-366.533zM642.923 960c-227.014 0-419.036-138.864-489.181-353.778l-5.381-16.507 466.332-150.848-288.215-394.864 14.107-10.21c92.237-66.712 188.313-97.793 302.337-97.793 283.59 0 514.312 229.676 514.312 512s-230.723 512-514.312 512zM642.923-29.284c-100.425 0-185.913 25.859-267.548 81.169l295.763 405.249-478.535 154.775c69.621 190.96 244.539 313.361 450.32 313.361 264.363 0 479.436-214.099 479.436-477.269-0.015-263.17-215.088-477.284-479.436-477.284z" />
<glyph unicode="&#xe127;" glyph-name="Radiobutton_selected" d="M511.936 960c-282.781 0-511.936-229.219-511.936-512.064 0-282.717 229.155-511.936 511.936-511.936 282.717 0 511.936 229.219 511.936 511.936 0 282.845-229.219 512.064-511.936 512.064zM511.936-0.008c-247.393 0-447.944 200.615-447.944 447.944 0 247.457 200.551 448.072 447.944 448.072 247.329 0 447.944-200.615 447.944-448.072 0-247.329-200.615-447.944-447.944-447.944zM703.976 448c0-106.061-85.979-192.040-192.040-192.040s-192.040 85.979-192.040 192.040c0 106.061 85.979 192.040 192.040 192.040s192.040-85.979 192.040-192.040z" />
<glyph unicode="&#xe128;" glyph-name="Radiobutton_unselected" d="M511.968 960c-282.798 0-511.968-229.234-511.968-512.032 0-282.734 229.17-511.968 511.968-511.968 282.734 0 511.968 229.234 511.968 511.968 0 282.798-229.234 512.032-511.968 512.032zM511.968-0.004c-247.409 0-447.972 200.627-447.972 447.972 0 247.409 200.563 448.036 447.972 448.036 247.345 0 447.972-200.627 447.972-448.036 0-247.345-200.627-447.972-447.972-447.972z" />
<glyph unicode="&#xe129;" glyph-name="RegularArrow" horiz-adv-x="1707" d="M1702.741 922.795c-8.363 22.528-27.989 37.205-49.323 37.205h-1600.171c-21.504 0-40.96-14.677-49.323-37.205-2.56-7.339-3.925-15.36-3.925-23.040 0-15.701 5.461-31.061 15.701-42.496l800.085-903.509c10.24-11.947 23.893-17.749 37.547-17.749s27.307 5.803 37.717 17.749l800.085 903.509c10.24 11.435 15.531 26.795 15.531 42.496 0 7.68-1.365 15.701-3.925 23.040z" />
<glyph unicode="&#xe12a;" glyph-name="Report" horiz-adv-x="832" d="M824.546 714.092l-238.472 238.472c-4.732 4.749-11.163 7.436-17.888 7.436h-350.844c-14.005 0-25.341-11.353-25.341-25.341v-781.351c0-14.005 11.336-25.307 25.341-25.307h589.315c14.005 0 25.341 11.319 25.341 25.307v542.879c0 6.708-2.687 13.156-7.453 17.905zM591.343 706.656c-7.003 0-12.688 5.685-12.688 12.671l0.069 164.597 177.285-177.285h-164.666zM192.001 63.989h-31.997c-17.697 0-31.997 14.317-31.997 32.015v671.995h-102.665c-14.005 0-25.341-11.336-25.341-25.341v-781.351c0-14.005 11.336-25.307 25.341-25.307h589.315c14.005 0 25.341 11.301 25.341 25.307v102.683h-447.997z" />
<glyph unicode="&#xe12b;" glyph-name="search_icon" d="M985.6 21.333l-42.667-42.667c-10.667-10.667-27.733-17.067-42.667-17.067-17.067 0-32 6.4-42.667 17.067l-277.333 277.333c-53.333-32-117.333-51.2-185.6-51.2-202.667 0-364.8 164.267-364.8 364.8s162.133 364.8 364.8 364.8 364.8-164.267 364.8-364.8c0-68.267-19.2-130.133-51.2-185.6l277.333-277.333c23.467-23.467 23.467-61.867 0-85.333zM394.667 326.4c134.4 0 243.2 108.8 243.2 243.2s-108.8 243.2-243.2 243.2c-134.4 0-243.2-108.8-243.2-243.2s108.8-243.2 243.2-243.2z" />
<glyph unicode="&#xe12c;" glyph-name="SubmenuArrow" horiz-adv-x="614" d="M22.323 957.645c-13.517-5.018-22.323-16.794-22.323-29.594v-960c0-13.005 8.806-24.576 22.323-29.594 4.403-1.638 9.216-2.458 13.824-2.458 9.421 0 18.637 3.174 25.498 9.421l542.106 480.051c7.168 6.144 10.65 14.336 10.65 22.528s-3.482 16.384-10.65 22.63l-542.106 479.949c-6.861 6.246-16.077 9.421-25.498 9.421-4.608 0-9.421-0.819-13.824-2.355z" />
<glyph unicode="&#xe12d;" glyph-name="Subscription" horiz-adv-x="1489" d="M1371.788 510.557c15.67 38.167 24.576 79.81 24.576 123.625 0 180.007-145.842 325.818-325.818 325.818-116.953 0-218.64-62.185-276.108-154.624-53.465 38.353-118.505 61.533-189.347 61.533-165.454 0-300.622-123.811-321.536-283.555-159.775-20.914-283.555-156.082-283.555-321.536 0-180.007 145.873-325.818 325.818-325.818h837.818c179.976 0 325.818 145.811 325.818 325.818 0 100.352-46.359 189.006-117.667 248.739zM1259.954 160.039c0-33.637-19.425-61.254-55.265-61.254-35.871 0-54.582 27.617-54.582 61.254v178.579c0 33.606-22.466 56.785-56.041 56.785-33.668 0-58.213-22.342-58.213-56.785v-178.579c0-33.637-19.549-61.254-55.389-61.254-35.778 0-54.582 27.617-54.582 61.254v178.579c0 33.606-22.373 56.785-56.010 56.785-33.606 0-58.275-22.342-58.275-56.785v-178.579c0-33.637-19.394-61.254-55.265-61.254s-54.551 27.617-54.551 61.254v218.267c0 9.402-7.416 16.446-16.229 16.477-10.426 0.031-13.715-7.106-14.77-9.495-1.024-2.327-103.486-225.466-103.486-225.466-18.463-38.167-35.499-61.068-74.535-61.068-36.554 0-56.041 20.976-74.504 61.068l-117.481 255.348c-12.66 26.593-2.358 57.654 25.662 70.128s57.965 0.434 70.097-26.19l96.256-226.925 75.031 176.873c25.414 58.089 67.056 81.144 119.467 81.144 33.885 0 74.814-18.742 98.894-49.897 0 0 51.759 49.897 110.871 49.897 56.103 0 89.212-18.742 113.199-49.897 0 0 45.242 49.959 117.419 49.959 72.239 0 132.313-52.317 132.313-127.007v-203.217z" />
<glyph unicode="&#xe12e;" glyph-name="trending_paths" horiz-adv-x="2580" d="M2559.108-43.024v925.076l4.867 4.153-4.867 5.706v8.999h-7.656l-14.704 17.222-127.431-108.783c-14.264-12.187-35.24-10.803-47.784 3.125l-110.021 122.271c-14.096 15.648-33.436 24.605-54.496 25.214-21.081 0.692-40.862-7.216-55.839-22.004l-478.176-472.89c-13.425-13.257-35.198-13.173-48.497 0.231l-141.8 142.891c-26.85 27.038-62.027 41.659-100.749 41.114-38.114-0.545-73.459-16.152-99.533-43.966l-320.665-342.061c-9.964-10.593-25.612-13.802-38.89-7.929l-70.355 31.024c-28.045 12.397-60.622 6.838-82.961-14.138l-75.158-70.459c-11.013-10.278-27.227-12.208-40.316-4.867l-262.372 147.652c-25.843 14.558-58.083 12.712-82.122-4.699l-283.474-205.232 7.132-9.859h-2.265v-167.81h-20.976v-20.976h2580.085v20.976h-20.976zM41.953-43.024v144.611l282.236 204.33c10.845 7.803 25.339 8.642 36.96 2.119l79.353-44.68v-306.38h-398.55zM461.479-43.024v294.591l162.063-91.205c29.178-16.424 65.152-12.061 89.569 10.824l75.158 70.459c10.048 9.418 24.71 11.915 37.317 6.356l34.443-15.208v-275.817h-398.55zM881.005-43.024v266.588l14.935-6.587c29.556-13.047 64.292-5.957 86.422 17.641l297.192 316.973v-594.636h-398.55zM1300.531-43.024v616.997l2.517 2.685c18.207 19.424 42.897 30.332 69.515 30.709 26.157 0.65 51.602-9.817 70.355-28.717l141.821-142.891c29.535-29.765 77.885-30.017 107.755-0.482l6.587 6.44v-484.762h-398.55zM1720.056-43.024v503.431h-2.119l400.668 396.221v-899.673h-398.55zM2139.582-43.024v920.419l31.066 30.73c6.733 6.649 15.627 10.341 25.13 9.901 9.46-0.273 18.165-4.3 24.521-11.348l110.021-122.271c27.836-30.94 74.466-34.045 106.203-6.985l101.609 86.737v-907.183h-398.55z" />
<glyph unicode="&#xe12f;" glyph-name="viewAlerts_icon" d="M994.133 102.4c0-10.667-2.133-21.333-8.533-29.867-10.667-19.2-29.867-29.867-53.333-29.867h-842.667c-21.333 0-40.533 10.667-53.333 29.867-6.4 8.533-8.533 19.2-8.533 29.867s2.133 21.333 8.533 29.867l424.533 723.2c10.667 19.2 29.867 29.867 51.2 29.867s40.533-10.667 51.2-29.867l422.4-723.2c6.4-10.667 8.533-19.2 8.533-29.867zM512 102.4c42.667 0 74.667 34.133 74.667 74.667s-32 74.667-74.667 74.667-74.667-34.133-74.667-74.667 32-74.667 74.667-74.667zM601.6 644.267h-181.333l29.867-330.667h121.6l29.867 330.667z" />
<glyph unicode="&#xe600;" glyph-name="Emptyicon" horiz-adv-x="1473" d="M1227.928 599.603h-553.338v-372.305c0-10.332 8.387-18.811 18.742-18.811h534.596c10.401 0 18.788 8.468 18.788 18.811v353.575c0 10.355-8.376 18.73-18.788 18.73zM912.976 662.743c0 10.332-9.503 18.765-21.146 18.765h-196.070c-11.666 0-21.135-8.422-21.135-18.765v-42.143h238.351v42.143zM960.618 960c-278.274 0-504.959-223.303-511.39-500.069h-403.587l76.129 76.141-16.855 16.855-104.915-104.938 104.938-104.915 16.855 16.889-76.164 76.118h403.599c6.408-276.767 233.093-500.092 511.39-500.092 282.335 0 512.035 229.688 512.035 511.989 0 282.335-229.699 512.023-512.035 512.023zM960.618-40.161c-269.173 0-488.161 218.977-488.161 488.15s218.988 488.173 488.161 488.173c269.173 0 488.196-219 488.196-488.173s-219.011-488.15-488.196-488.15z" />
<glyph unicode="&#xe601;" glyph-name="foldericon" horiz-adv-x="1239" d="M1197.959 782.697h-1197.959v-806.071c0-22.418 18.145-40.626 40.626-40.626h1157.334c22.418 0 40.626 18.207 40.626 40.626v765.445c0 22.418-18.207 40.626-40.626 40.626zM516.056 919.312c0 22.418-20.499 40.626-45.766 40.626h-424.525c-25.267 0-45.704-18.207-45.704-40.626v-91.222h516.056v91.222z" />
</font>
</defs>
</svg>
